# xmcd CD database file
#
# Track frame offsets:
#	150
#	21673
#	45662
#	78682
#	107244
#	136975
#	159552
#	190363
#	220243
#	245989
#	267667
#
# Disc length: 3893 seconds
#
# Revision: 0
# Processed by: cddbd v1.5.2PL0 Copyright (c) Steve Scherf et al.
# Submitted via: CDex 1.51
#
DISCID=ae0f330b
DTITLE=David Sills - Down the Line
DYEAR=1900
DGENRE=Jazz
TTITLE0=Cuttin' Back
TTITLE1=Down the Line
TTITLE2=Never Let Me Go
TTITLE3=Eastern View
TTITLE4=Bag's Groove
TTITLE5=Its' All You
TTITLE6=Slow Joe
TTITLE7=Beatrice
TTITLE8=Harlequin
TTITLE9=Time Line
TTITLE10=If You Never Come To Me
EXTD=
EXTT0=
EXTT1=
EXTT2=
EXTT3=
EXTT4=
EXTT5=
EXTT6=
EXTT7=
EXTT8=
EXTT9=
EXTT10=
PLAYORDER=
